<mxfile host="65bd71144e">
    <diagram id="5rpsERfDIBy5Iw_YTfKP" name="Página-1">
        <mxGraphModel dx="673" dy="348" grid="1" gridSize="10" guides="1" tooltips="1" connect="1" arrows="1" fold="1" page="1" pageScale="1" pageWidth="827" pageHeight="1169" math="0" shadow="0">
            <root>
                <mxCell id="0"/>
                <mxCell id="1" parent="0"/>
                <mxCell id="2" value="Clientes" style="swimlane;fontStyle=1;align=center;verticalAlign=top;childLayout=stackLayout;horizontal=1;startSize=26;horizontalStack=0;resizeParent=1;resizeParentMax=0;resizeLast=0;collapsible=1;marginBottom=0;" parent="1" vertex="1">
                    <mxGeometry x="150" y="80" width="190" height="350" as="geometry"/>
                </mxCell>
                <mxCell id="3" value="-id:Int&#10;+nombre:String&#10;#contraseña:String&#10;+email:String&#10;+telefono: String&#10;+calle: String&#10;+numero: String&#10;+localidad: String&#10;+provincia: String&#10;+pais: String&#10;+dni: Int&#10;+fechaNacimiento: Date&#10;" style="text;strokeColor=none;fillColor=none;align=left;verticalAlign=top;spacingLeft=4;spacingRight=4;overflow=hidden;rotatable=0;points=[[0,0.5],[1,0.5]];portConstraint=eastwest;" parent="2" vertex="1">
                    <mxGeometry y="26" width="190" height="184" as="geometry"/>
                </mxCell>
                <mxCell id="4" value="" style="line;strokeWidth=1;fillColor=none;align=left;verticalAlign=middle;spacingTop=-1;spacingLeft=3;spacingRight=3;rotatable=0;labelPosition=right;points=[];portConstraint=eastwest;strokeColor=inherit;" parent="2" vertex="1">
                    <mxGeometry y="210" width="190" height="8" as="geometry"/>
                </mxCell>
                <mxCell id="5" value="+ nuevoCliente()&#10;+modificarCliente()&#10;+eliminarCliente()&#10;+consultarTodos()&#10;+consuñltarUnCliente(id)&#10;+consultarUltimoCliente()&#10;+consultarPrimerCliente()&#10;+crearClientes()&#10;" style="text;strokeColor=none;fillColor=none;align=left;verticalAlign=top;spacingLeft=4;spacingRight=4;overflow=hidden;rotatable=0;points=[[0,0.5],[1,0.5]];portConstraint=eastwest;" parent="2" vertex="1">
                    <mxGeometry y="218" width="190" height="132" as="geometry"/>
                </mxCell>
            </root>
        </mxGraphModel>
    </diagram>
</mxfile>